<?xml version="1.0" standalone="no"?>
<!DOCTYPE svg PUBLIC "-//W3C//DTD SVG 20010904//EN"
 "http://www.w3.org/TR/2001/REC-SVG-20010904/DTD/svg10.dtd">
<svg version="1.0" xmlns="http://www.w3.org/2000/svg"
 width="1119.000000pt" height="1119.000000pt" viewBox="0 0 1119.000000 1119.000000"
 preserveAspectRatio="xMidYMid meet">
<metadata>
Created by potrace 1.14, written by Peter Selinger 2001-2017
</metadata>
<g transform="translate(0.000000,1119.000000) scale(0.100000,-0.100000)"
fill="#000000" stroke="none">
<path d="M5288 11155 c-2 -2 -46 -6 -98 -10 -52 -4 -108 -8 -125 -10 -59 -5
-170 -18 -185 -20 -8 -1 -33 -5 -55 -9 -123 -18 -305 -48 -335 -56 -19 -5 -48
-11 -65 -14 -16 -3 -84 -19 -150 -36 -66 -17 -129 -32 -139 -35 -86 -21 -401
-123 -481 -156 -16 -7 -32 -13 -35 -13 -7 -2 -119 -46 -165 -66 -22 -10 -65
-28 -95 -41 -214 -89 -760 -390 -828 -456 -7 -7 -17 -13 -22 -13 -5 0 -15 -6
-22 -13 -7 -6 -33 -25 -57 -41 -25 -16 -50 -33 -55 -38 -6 -5 -40 -30 -76 -56
-36 -25 -67 -49 -70 -52 -3 -3 -23 -19 -45 -35 -22 -17 -42 -32 -45 -35 -3 -3
-30 -25 -60 -50 -30 -24 -62 -51 -71 -60 -9 -8 -38 -34 -65 -56 -141 -119
-394 -373 -527 -528 -36 -42 -53 -62 -117 -141 -36 -44 -68 -81 -72 -83 -5 -2
-8 -10 -8 -17 0 -7 -4 -15 -8 -17 -26 -10 -392 -547 -392 -574 0 -2 -11 -21
-23 -42 -124 -196 -314 -607 -427 -923 -48 -133 -132 -412 -146 -482 -2 -10
-6 -27 -9 -37 -3 -10 -8 -27 -10 -37 -2 -10 -13 -61 -25 -113 -12 -52 -24
-106 -26 -120 -2 -14 -6 -34 -9 -45 -10 -50 -54 -347 -60 -415 -4 -41 -9 -83
-11 -94 -11 -56 -19 -283 -19 -516 0 -310 9 -469 40 -710 2 -14 7 -52 10 -85
4 -33 8 -62 10 -65 2 -3 6 -26 10 -50 32 -230 122 -596 211 -860 136 -403 284
-724 501 -1090 41 -69 80 -134 86 -145 7 -11 14 -22 18 -25 3 -3 16 -23 29
-45 13 -22 26 -42 29 -45 4 -3 35 -48 70 -100 36 -52 67 -97 71 -100 3 -3 17
-21 30 -40 24 -35 125 -162 167 -210 11 -14 47 -56 80 -94 32 -38 76 -88 98
-111 247 -258 383 -386 560 -530 39 -32 71 -61 73 -66 2 -5 8 -9 13 -9 5 0 37
-23 71 -50 35 -28 97 -74 138 -102 41 -29 77 -54 80 -58 10 -10 116 -79 157
-101 13 -7 23 -16 23 -21 0 -4 4 -8 8 -8 5 0 60 -31 123 -69 253 -152 504
-275 794 -391 195 -77 483 -173 540 -181 6 0 17 -5 26 -10 9 -4 27 -10 40 -13
13 -2 71 -16 129 -30 58 -13 116 -27 130 -30 80 -17 176 -36 213 -41 23 -3 49
-8 57 -10 8 -2 33 -6 55 -10 22 -3 51 -8 65 -10 14 -2 48 -7 75 -10 28 -3 68
-8 90 -10 22 -3 56 -7 75 -10 226 -26 854 -27 1055 -1 17 2 62 7 100 11 39 3
79 8 90 10 11 3 41 7 67 10 26 2 58 7 70 9 13 3 39 8 58 11 42 6 98 16 230 41
155 30 610 157 695 194 11 5 76 30 144 55 316 116 666 292 985 492 66 42 123
79 126 82 3 3 12 11 21 16 54 33 256 181 277 202 7 7 16 13 20 13 4 0 26 17
49 38 23 20 51 44 63 52 12 8 32 24 44 35 12 11 48 43 80 70 148 127 380 357
509 505 26 30 53 62 61 70 8 8 48 58 90 110 95 118 82 102 144 185 28 39 55
75 59 80 17 21 110 159 155 228 50 77 233 388 233 397 1 3 14 30 30 60 61 116
195 401 195 416 0 3 8 24 19 47 99 220 266 777 305 1017 3 19 8 46 11 60 3 14
8 41 11 60 2 19 9 58 14 85 11 62 38 272 45 345 17 202 20 276 20 535 -1 255
-8 456 -20 535 -2 14 -6 48 -9 75 -3 28 -9 73 -12 100 -18 155 -72 447 -115
620 -119 479 -294 931 -521 1345 -17 30 -38 69 -47 85 -9 17 -18 32 -21 35 -3
3 -13 21 -24 40 -34 62 -130 215 -138 218 -4 2 -8 8 -8 14 0 6 -13 27 -30 48
-16 21 -30 43 -30 49 0 6 -3 11 -7 11 -5 1 -24 25 -43 55 -19 30 -38 55 -42
55 -5 0 -8 5 -8 10 0 9 -82 120 -115 156 -5 6 -23 28 -40 50 -171 218 -460
520 -656 685 -29 24 -61 53 -73 64 -18 17 -64 55 -136 112 -8 6 -41 32 -72 57
-31 25 -59 46 -62 46 -5 0 -21 12 -60 45 -7 6 -19 15 -27 20 -9 6 -76 51 -150
100 -163 109 -220 146 -277 176 -24 13 -51 29 -60 34 -52 31 -168 94 -177 96
-5 1 -32 15 -58 31 -26 15 -50 28 -52 28 -2 0 -50 22 -107 49 -247 117 -510
217 -799 302 -75 22 -145 42 -155 44 -11 2 -89 20 -174 39 -85 20 -175 39
-200 42 -25 3 -48 8 -51 9 -3 2 -86 15 -185 29 -312 43 -373 48 -756 51 -174
2 -318 2 -320 0z"/>
</g>
</svg>
