<svg id="wave" style="transform:rotate(0deg); transition: 0.3s" viewBox="0 0 1440 150" version="1.1" xmlns="http://www.w3.org/2000/svg">
<path style="transform:translate(0, 0px); opacity:1" fill="blue" d="M0,0L48,20C96,40,192,80,288,102.5C384,125,480,130,576,127.5C672,125,768,115,864,100C960,85,1056,65,1152,70C1248,75,1344,105,1440,112.5C1536,120,1632,105,1728,92.5C1824,80,1920,70,2016,62.5C2112,55,2208,50,2304,57.5C2400,65,2496,85,2592,90C2688,95,2784,85,2880,82.5C2976,80,3072,85,3168,80C3264,75,3360,60,3456,65C3552,70,3648,95,3744,110C3840,125,3936,130,4032,130C4128,130,4224,125,4320,105C4416,85,4512,50,4608,40C4704,30,4800,45,4896,52.5C4992,60,5088,60,5184,70C5280,80,5376,100,5472,112.5C5568,125,5664,130,5760,125C5856,120,5952,105,6048,92.5C6144,80,6240,70,6336,60C6432,50,6528,40,6624,50C6720,60,6816,90,6864,105L6912,120L6912,150L6864,150C6816,150,6720,150,6624,150C6528,150,6432,150,6336,150C6240,150,6144,150,6048,150C5952,150,5856,150,5760,150C5664,150,5568,150,5472,150C5376,150,5280,150,5184,150C5088,150,4992,150,4896,150C4800,150,4704,150,4608,150C4512,150,4416,150,4320,150C4224,150,4128,150,4032,150C3936,150,3840,150,3744,150C3648,150,3552,150,3456,150C3360,150,3264,150,3168,150C3072,150,2976,150,2880,150C2784,150,2688,150,2592,150C2496,150,2400,150,2304,150C2208,150,2112,150,2016,150C1920,150,1824,150,1728,150C1632,150,1536,150,1440,150C1344,150,1248,150,1152,150C1056,150,960,150,864,150C768,150,672,150,576,150C480,150,384,150,288,150C192,150,96,150,48,150L0,150Z"></path></svg>