<svg width="282" height="212" viewBox="0 0 282 212" fill="none" xmlns="http://www.w3.org/2000/svg">
<path fill-rule="evenodd" clip-rule="evenodd" d="M227.941 7.15064C256.169 19.0344 276.034 47.3457 280.843 76.8803C285.652 106.415 275.197 137.173 254.497 159.018C233.796 180.863 202.849 193.97 171.066 202.708C139.074 211.621 106.245 216.165 81.1534 206.903C56.0615 197.64 38.7063 174.397 23.6512 150.804C8.59603 127.386 -4.15902 103.619 1.27756 83.3465C6.92323 63.0742 30.5514 46.4719 54.3887 34.0639C78.2261 21.6558 101.854 13.2673 132.174 6.80112C162.493 0.160197 199.504 -4.55835 227.941 7.15064Z" fill="#F6F6F6"/>
<path fill-rule="evenodd" clip-rule="evenodd" d="M4.40625 197.671C5.48304 197.671 6.4594 198.111 7.16665 198.819C7.87413 199.528 8.3125 200.506 8.3125 201.586C8.3125 202.665 7.87405 203.643 7.16649 204.352C6.45926 205.061 5.48296 205.5 4.40625 205.5C3.32954 205.5 2.35324 205.061 1.64601 204.352C0.938453 203.643 0.5 202.665 0.5 201.586C0.5 200.506 0.938373 199.528 1.64585 198.819C2.3531 198.111 3.32946 197.671 4.40625 197.671ZM4.40625 197.998C3.41885 197.998 2.52309 198.401 1.87434 199.051C1.22604 199.7 0.82459 200.597 0.82459 201.586C0.82459 202.575 1.22604 203.471 1.87434 204.121C2.52309 204.771 3.41885 205.173 4.40625 205.173C5.39395 205.173 6.28961 204.771 6.93825 204.121C7.58656 203.472 7.98791 202.575 7.98791 201.586C7.98791 200.597 7.58656 199.7 6.93825 199.05C6.28961 198.401 5.39395 197.998 4.40625 197.998ZM232.73 146.171C232.807 146.171 232.883 146.201 232.943 146.261C233.002 146.32 233.031 146.397 233.031 146.474C233.031 146.552 233.002 146.63 232.942 146.689L229.551 150.085L232.942 153.483C233.002 153.542 233.031 153.619 233.031 153.697C233.031 153.775 233.002 153.852 232.942 153.912C232.884 153.97 232.807 154 232.73 154C232.653 154 232.576 153.97 232.517 153.912L229.125 150.513L225.733 153.912C225.674 153.97 225.597 154 225.52 154C225.443 154 225.366 153.97 225.308 153.912C225.248 153.852 225.219 153.775 225.219 153.697C225.219 153.619 225.248 153.542 225.308 153.483L228.698 150.085L225.308 146.689C225.248 146.63 225.219 146.552 225.219 146.474C225.219 146.397 225.248 146.32 225.308 146.26C225.367 146.201 225.443 146.171 225.52 146.171L229.125 149.657L232.517 146.26C232.576 146.201 232.653 146.171 232.73 146.171ZM56.4796 137.343C56.5568 137.343 56.6338 137.373 56.6927 137.432C56.7517 137.491 56.781 137.568 56.781 137.646C56.781 137.724 56.7514 137.801 56.6927 137.86L53.3012 141.257L56.6923 144.654C56.7515 144.713 56.7812 144.791 56.7812 144.868C56.7812 144.946 56.7515 145.024 56.6923 145.083C56.6337 145.142 56.5567 145.171 56.4796 145.171C56.4026 145.171 56.3256 145.142 56.2669 145.083L52.8747 141.684L49.4831 145.083C49.4244 145.142 49.3474 145.171 49.2704 145.171C49.1933 145.171 49.1163 145.142 49.0577 145.083C48.9985 145.024 48.9688 144.946 48.9688 144.868C48.9688 144.791 48.9985 144.713 49.0577 144.654L52.4482 141.257L49.0578 137.861C48.9986 137.801 48.969 137.724 48.969 137.646C48.969 137.568 48.9983 137.491 49.0573 137.432C49.1162 137.373 49.1932 137.343 49.2704 137.343L52.8747 140.83L56.2677 137.431C56.3262 137.372 56.4029 137.343 56.4796 137.343ZM229.125 62.3C230.202 62.3 231.178 62.7391 231.885 63.4475C232.593 64.1563 233.031 65.1348 233.031 66.214C233.031 67.2934 232.593 68.2721 231.885 68.9809C231.178 69.6895 230.202 70.1286 229.125 70.1286C228.048 70.1286 227.072 69.6894 226.365 68.9809C225.657 68.272 225.219 67.2933 225.219 66.214C225.219 65.1349 225.657 64.1563 226.365 63.4475C227.072 62.7391 228.048 62.3 229.125 62.3ZM229.125 62.6269C228.137 62.6269 227.242 63.029 226.593 63.6789C225.945 64.3283 225.543 65.225 225.543 66.214C225.543 67.2029 225.945 68.0998 226.593 68.7494C227.242 69.3994 228.137 69.8017 229.125 69.8017C230.112 69.8017 231.008 69.3994 231.657 68.7494C232.305 68.0997 232.707 67.2029 232.707 66.214C232.707 65.2251 232.305 64.3284 231.657 63.6789C231.008 63.0291 230.112 62.6269 229.125 62.6269ZM281.199 0.5C281.276 0.5 281.352 0.529347 281.411 0.58807C281.47 0.647423 281.5 0.725133 281.5 0.802826C281.5 0.880191 281.47 0.957553 281.411 1.01695L278.02 4.41399L281.411 7.81119C281.47 7.87049 281.5 7.94804 281.5 8.02565C281.5 8.10325 281.47 8.1808 281.411 8.2401C281.352 8.29888 281.275 8.32857 281.198 8.32857C281.121 8.32857 281.044 8.29888 280.986 8.24011L277.593 4.84117L274.202 8.2401C274.143 8.29888 274.066 8.32857 273.989 8.32857C273.912 8.32857 273.835 8.29888 273.776 8.2401C273.717 8.1808 273.688 8.10325 273.688 8.02565C273.688 7.94804 273.717 7.87049 273.776 7.81118L277.167 4.41399L273.776 1.01653C273.717 0.957552 273.688 0.880191 273.688 0.802826C273.688 0.725133 273.717 0.647423 273.776 0.58807C273.835 0.529347 273.912 0.5 273.989 0.5L277.593 3.98571L280.985 0.588524C281.044 0.529573 281.121 0.5 281.199 0.5ZM55.4548 1.47195C56.2642 2.18461 56.7086 3.16087 56.7731 4.16144C56.8375 5.16199 56.5221 6.18717 55.8107 6.99789C55.1251 7.7796 54.1777 8.249 53.1415 8.31938C51.9344 8.3249 51.0213 7.99189 50.2972 7.35359C49.5131 6.66392 49.0446 5.70938 48.977 4.66517C48.9101 3.6218 49.2524 2.61428 49.9422 1.82844C50.653 1.01788 51.6267 0.572749 52.6248 0.508205C53.623 0.443665 54.6457 0.759663 55.4548 1.47195ZM52.8781 0.826931C51.8827 0.826931 50.8921 1.239 50.1847 2.04485C49.5535 2.76522 49.2395 3.68804 49.3018 4.64476C49.3634 5.60043 49.7929 6.47543 50.5109 7.10762C51.2305 7.7413 52.1545 8.05847 53.1081 7.99365C54.0618 7.93206 54.9356 7.50101 55.5669 6.78141C56.2186 6.0387 56.5083 5.09965 56.4493 4.18279C56.3904 3.26592 55.9829 2.37156 55.2414 1.71822C54.5619 1.12083 53.7181 0.826931 52.8781 0.826931Z" stroke="#E5E5E5"/>
<path d="M93.5833 35.4583C93.5833 33.8245 92.2588 32.5 90.625 32.5H78.7917L78.15 32.5137C70.2785 32.8496 64 39.3374 64 47.2917V136.042L64.0137 136.683C64.3496 144.555 70.8374 150.833 78.7917 150.833H96.5417L96.8867 150.813C98.358 150.643 99.5 149.392 99.5 147.875C99.5 146.241 98.1755 144.917 96.5417 144.917H78.7917L78.2702 144.902C73.6114 144.632 69.9167 140.768 69.9167 136.042V47.2917L69.9317 46.7702C70.2017 42.1114 74.0652 38.4167 78.7917 38.4167H90.625L90.97 38.3968C92.4413 38.2259 93.5833 36.9755 93.5833 35.4583Z" fill="#000091"/>
<path fill-rule="evenodd" clip-rule="evenodd" d="M217.82 46.65C217.484 38.7785 210.996 32.5 203.042 32.5H191.208L190.863 32.5199C189.392 32.6908 188.25 33.9412 188.25 35.4583C188.25 37.0922 189.574 38.4167 191.208 38.4167H203.042L203.563 38.4317C208.222 38.7017 211.917 42.5652 211.917 47.2917V136.042L211.902 136.563C211.632 141.222 207.768 144.917 203.042 144.917H114.292L113.947 144.937C112.475 145.107 111.333 146.358 111.333 147.875C111.333 149.509 112.658 150.833 114.292 150.833H129.035C128.616 163.105 125.498 168.583 120.208 168.583H114.292L113.947 168.603C112.475 168.774 111.333 170.025 111.333 171.542C111.333 173.176 112.658 174.5 114.292 174.5H167.542L167.887 174.48C169.358 174.309 170.5 173.059 170.5 171.542C170.5 169.908 169.175 168.583 167.542 168.583H161.625C156.335 168.583 153.218 163.105 152.799 150.833H203.042L203.683 150.82C211.555 150.484 217.833 143.996 217.833 136.042V47.2917L217.82 46.65ZM134.951 150.833H146.882C147.149 158.604 148.497 164.58 150.999 168.583H130.835C133.337 164.58 134.685 158.604 134.951 150.833Z" fill="#000091"/>
<path d="M170.769 121.25C172.403 121.25 173.727 122.574 173.727 124.208C173.727 125.725 172.585 126.976 171.114 127.147L170.769 127.167H84.7083C83.0745 127.167 81.75 125.842 81.75 124.208C81.75 122.691 82.892 121.441 84.3633 121.27L84.7083 121.25H170.769Z" fill="#000091"/>
<path d="M146.833 136.042C146.833 134.408 145.509 133.083 143.875 133.083H137.958L137.613 133.103C136.142 133.274 135 134.525 135 136.042C135 137.676 136.324 139 137.958 139H143.875L144.22 138.98C145.691 138.809 146.833 137.559 146.833 136.042Z" fill="#000091"/>
<path d="M146.833 35.4583C146.833 33.8245 145.509 32.5 143.875 32.5H137.958L137.613 32.5199C136.142 32.6908 135 33.9412 135 35.4583C135 37.0922 136.324 38.4167 137.958 38.4167H143.875L144.22 38.3968C145.691 38.2259 146.833 36.9755 146.833 35.4583Z" fill="#000091"/>
<path d="M200.572 130.402L196.028 120.874L195.249 119.236L194.469 117.599L193.243 115.025L192.892 114.294L192.463 113.388L191.684 111.75L188.548 105.17C188.427 104.916 188.276 104.681 188.101 104.475C189.116 103.678 190.089 102.814 191.001 101.895C191.442 101.448 191.871 100.995 192.294 100.524C192.705 100.058 193.104 99.5872 193.485 99.0978C195.956 95.9679 197.883 92.3365 199.092 88.3185C199.823 85.8653 200.27 83.3276 200.415 80.7718C201.418 62.8989 187.702 47.5397 169.829 46.5366C151.95 45.5276 136.597 59.2494 135.594 77.1283C135.57 77.6238 135.552 78.1132 135.54 78.6087V78.6207C135.485 83.8835 136.688 88.8744 138.863 93.2973C139.129 93.8411 139.407 94.3788 139.703 94.9045C139.999 95.4302 140.313 95.9498 140.639 96.4634C146.071 104.947 155.364 110.753 166.174 111.363C166.796 111.4 167.419 111.418 168.035 111.418C171.086 111.418 174.059 110.989 176.887 110.191C176.935 110.348 176.983 110.505 177.056 110.657L178.796 114.3L180.379 117.617L181.158 119.255L181.938 120.892L183.164 123.466L183.944 125.103L184.723 126.741L189.086 135.889C190.107 138.028 192.246 139.284 194.476 139.284C195.333 139.284 196.204 139.097 197.031 138.704L197.762 138.354C199.201 137.671 200.282 136.463 200.814 134.964C201.345 133.466 201.261 131.847 200.578 130.408L200.572 130.402ZM190.85 114.221L190.886 114.294H190.717L190.856 114.221H190.85ZM166.373 107.738C156.893 107.2 148.724 102.167 143.878 94.7836C143.546 94.2761 143.226 93.7625 142.923 93.2368C142.627 92.7112 142.349 92.1734 142.084 91.6296C140.343 88.0768 139.316 84.1192 139.177 79.9379C139.165 79.515 139.153 79.092 139.159 78.663C139.159 78.4032 139.177 78.1495 139.183 77.8896C139.189 77.7023 139.195 77.509 139.201 77.3217C139.232 76.802 139.274 76.2824 139.334 75.7688C140.996 60.6633 154.259 49.2919 169.618 50.1559C185.491 51.0502 197.678 64.6935 196.784 80.5663C196.693 82.1373 196.469 83.7022 196.131 85.237C195.998 85.8412 195.847 86.4454 195.672 87.0436C195.648 87.1221 195.636 87.2007 195.611 87.2792C195.454 87.7928 195.285 88.2943 195.104 88.7958C193.95 91.9921 192.27 94.8864 190.192 97.3939C189.793 97.8773 189.382 98.3425 188.959 98.7957C188.524 99.2609 188.065 99.702 187.599 100.137C182.01 105.309 174.44 108.203 166.373 107.738ZM197.394 133.75C197.188 134.336 196.759 134.807 196.198 135.079L195.466 135.43C194.306 135.985 192.905 135.49 192.355 134.324L187.944 125.067L187.164 123.43L186.385 121.792L185.158 119.218L184.379 117.581L183.6 115.943L182.814 114.294L180.415 109.267L185.364 106.91L188.47 113.418L188.886 114.294L189.249 115.055L190.028 116.693L191.255 119.267L192.034 120.904L192.814 122.542L197.303 131.961C197.569 132.523 197.605 133.158 197.394 133.75Z" fill="#FF0000"/>
<path d="M172.845 53.8897C171.854 53.787 170.953 54.5 170.851 55.4969C170.742 56.4939 171.461 57.3882 172.458 57.4909C176.071 57.8776 179.334 59.6419 181.642 62.4455C181.999 62.8805 182.518 63.1041 183.044 63.1041C183.449 63.1041 183.86 62.9712 184.192 62.6932C184.965 62.0588 185.074 60.9168 184.44 60.1434C181.527 56.6027 177.407 54.3791 172.845 53.8837V53.8897Z" fill="#FF0000"/>
<path fill-rule="evenodd" clip-rule="evenodd" d="M123.233 54.4863C124.409 54.4863 125.362 55.4396 125.362 56.6154V90.6811C125.362 91.857 124.409 92.8102 123.233 92.8102H84.9094C83.7335 92.8102 82.7803 91.857 82.7803 90.6811V56.6154C82.7803 55.4396 83.7335 54.4863 84.9094 54.4863H123.233ZM121.104 58.7445H87.0385V88.552H121.104V58.7445ZM116.846 80.0356V84.2938H104.071V80.0356H116.846ZM93.9645 64.6145L102.996 73.6483L93.9645 82.682L90.9518 79.6694L96.975 73.6483L90.9518 67.6272L93.9645 64.6145Z" fill="#000091"/>
</svg>
